<svg id="Layer_5" data-name="Layer 5" xmlns="http://www.w3.org/2000/svg" viewBox="0 0 370.00003 502.47097"><defs><style>.cls-1{fill:#4d4d4d;stroke:#b3b3b3;stroke-miterlimit:10;stroke-width:10px;}.cls-2{fill:gray;}.cls-3{fill:#384de8;}.cls-4{fill:#39b54a;}.cls-5{fill:#006837;}.cls-6{fill:#009245;}.cls-7{fill:#8cc63f;}.cls-8{fill:#f0f;}.cls-9{fill:#e6e6e6;}.cls-10{fill:#b3b3b3;}</style></defs><title>WCL_Logo</title><circle class="cls-1" cx="185.00001" cy="280.26164" r="162.5"/><path class="cls-2" d="M389.25,32.23836h12.8l7.2,10.42708-7.2,11.22917,5.6,65.77083s16.48486-.79275,24.8,4.81249c12.99882,8.7625,16.8,17.64583,16.8,17.64583a38.40311,38.40311,0,0,0-7.6-4.41146c-5.65859-2.36977-7.6-1.20312-7.6-1.20312l5.6,10.42708s-9.39563,12.73715-12,51.33334c-2.29558,34.02016,4.56149,107.68452,4,136.35416-.131,6.69143-1.68946,20.22091-4,26.46876-5.53751,14.97382-32,56.14584-32,56.14584s-3.93042-24.27644-10.374-47.73269a264.4191,264.4191,0,0,0-13.626-38.09022s4.44671-.56309,10.4-28.07292c3.73237-17.24711,1.959-33.20861,1.2-70.58333-.85537-42.11691-12.8-56.14583-12.8-56.14583l3.6-20.05209-13.25206,12.92886L355.65,188.64462s-6.4-13.019-6.4-27.27083c0-17.95929,2.4-25.01537,2.4-25.01537a15.23108,15.23108,0,0,0,12,2.557c5.71765-1.14687,20-12.03125,20-12.03125l5.6-72.98959-7.2-11.22916Z" transform="translate(-214.99999 -32.23836)"/><path class="cls-3" d="M521.89282,172.60413l-4.32855-5.83332-7.93573,8.02082-3.60712-2.1875-1.44287,1.45837-18.75714-43.02087,5.77142-7.29163-5.77142-8.02087L474.99994,80l-10.82141,35.72919L458.4071,123.75l5.77143,7.29169L445.42145,174.0625l-1.44287-1.45831-3.60718,2.1875-7.93567-8.02088-4.32861,5.83338L399.25,182.08337l25.25,10.93744,10.82141,7.29169,5.05-9.11456,3.60712,1.82287,3.60711,8.75,15.15,8.02088,6.49286,5.83331-5.05,4.375-1.44287,2.91669-12.26428,7.29162L462.73572,237.5l3.60718,4.375,2.88568,2.1875v12.39581l-2.16425,1.45832v6.92712l2.16431,1.09375v9.11456l-1.44287,1.45832v4.01043l1.44287,1.45832V320.625l-1.44287,3.64581v10.9375l1.44287,5.83332v19.6875l-1.44281,5.10418,1.44281,4.375-1.44281,2.91669,1.44281,3.64581-8.65711,2.1875v3.64588l1.80359,1.82287V386.25l-12.625,3.64581v3.64588l14.42853,7.29162L475.00012,430l10.82141-29.16669,14.42859-7.29168v-3.64582l-12.625-3.64581v-1.82294l1.80353-1.82293v-3.64582l-8.6571-2.1875,1.44281-3.64581-1.44281-2.91669,1.44281-4.375-1.44288-5.10418v-19.6875l1.44288-5.83332v-10.9375l-1.44288-3.64581V281.97913l1.44288-1.45832v-4.01043l-1.44288-1.45832V265.9375l2.16425-1.09375v-6.92712l-2.16425-1.45832V244.0625l2.88569-2.1875,3.60711-4.375,12.26428-7.29169-12.26428-7.29168L485.82147,220l-5.05-4.375,6.49286-5.83337,15.15-8.02082,3.60711-8.75,3.60718-1.82293,5.05,9.11456L525.5,193.02081l25.25-10.93756Zm-23.80713,16.40625-15.8714,13.125L475,196.66663l-7.21429,5.46875-15.8714-13.12494,8.6571-6.92713-8.6571-5.83331L467.78571,150,475,161.66663,482.21429,150l15.8714,26.25-8.6571,5.83331Z" transform="translate(-214.99999 -32.23836)"/><polygon class="cls-4" points="252.786 129.428 249.179 138.907 252.064 155.678 264.329 163.335 270.821 149.845 264.329 135.262 252.786 129.428"/><polygon class="cls-5" points="135.962 59.411 110 113.772 104.808 173.311 120.385 206.964 120.385 253.56 104.808 287.212 110 346.751 135.962 401.113 122.981 412.762 117.788 392.052 97.019 346.751 89.231 282.035 104.808 243.205 104.808 217.318 89.231 178.489 97.019 113.772 117.788 68.471 122.981 47.762 135.962 59.411"/><polygon class="cls-6" points="102.671 101.445 122.981 131.893 117.788 152.602 106.284 156.385 107.133 146.652 112.596 144.836 115.192 134.481 101.211 104.63 102.671 101.445"/><polygon class="cls-6" points="92.476 151.523 91.334 161.014 84.038 162.957 89.231 178.489 104.808 217.318 104.808 229.401 76.25 165.545 81.442 155.191 92.476 151.523"/><polygon class="cls-6" points="92.544 273.776 86.635 294.978 89.231 320.864 113.894 333.808 115.192 338.985 109.946 346.135 109.473 340.712 81.442 323.453 81.442 292.389 92.544 273.776"/><polygon class="cls-6" points="101.041 355.523 102.212 370.049 115.192 393.347 122.981 401.113 104.808 390.758 94.423 370.049 97.019 346.751 101.041 355.523"/><path class="cls-4" d="M336.42308,244.3794C346.18131,245.23927,358.75,262.5,358.75,262.5s-7.60394-4.38969-9.34615,0c0,0,5.01894,6.50123,5.1923,12.94326,0,0-6.42894-5.25394-10.38461-2.58865,0,0,4.25356,4.16627,2.59615,11.64893,0,0-3.80535-3.94208-7.78846-1.29432-3.89423,2.58868-6.49038,18.12059-6.49038,18.12059s.02359-14.978-5.19231-15.53191c-4.19889-.44588-5.19231,3.883-5.19231,3.883-9.08654-11.85347,1.29808-16.82627,1.29808-16.82627-4.73313-4.24942-12.98077,2.58865-12.98077,2.58865,1.16514-10.9964,12.98077-15.53191,12.98077-15.53191C318.70918,256.7242,310.46154,262.5,310.46154,262.5S320.83286,243.00563,336.42308,244.3794Z" transform="translate(-214.99999 -32.23836)"/><path class="cls-7" d="M335.4537,100.63522c-6.29647,2.29134-12.22389,16.10156-12.22389,16.10156s4.93213-4.42714,6.86315-1.83366c0,0-2.16238,5.18286-1.13285,9.471,0,0,3.31576-4.6075,6.40341-3.5445,0,0-3.0971,1.96215,1.681,8.57094,0,0-1.37188-6.64371,3.51663-5.71771,3.146.59593,7.58059,13.90307,7.58059,13.90307s-2.67569-9.89477.67311-11.18182c2.69584-1.0361,4.12119,1.64941,4.12119,1.64941,3.90009-9.43837-3.84624-10.89121-3.84624-10.89121,2.37341-3.64418,9.0387-.58125,9.0387-.58125-2.723-7.06175-11.33742-7.97291-11.33742-7.97291,2.56208-2.94211,9.03869-.58125,9.03869-.58125S345.51324,96.97446,335.4537,100.63522Z" transform="translate(-214.99999 -32.23836)"/><path class="cls-7" d="M322.92308,245.67374c7.6803.596,10.38461,14.23759,10.38461,14.23759a11.68639,11.68639,0,0,0-9.08654-.00007c1.71746,12.44171,9.08654,18.12057,9.08654,18.12057a35.1573,35.1573,0,0,1-12.98077-2.58865s-.83075,5.59788,5.19231,15.53192c0,0-7.31219.21829-9.08654-2.58866,0,0-1.53755,7.75734,3.89423,18.12057-11.68269-6.00687-10.38461-12.94326-10.38461-12.94326-2.56462-.3866-3.89423,5.17731-3.89423,5.17731s-.948-4.67644,1.29807-11.64894c0,0-1.74957.48748-3.11538,3.883a47.22616,47.22616,0,0,1,3.11538-25.88652s-3.78512,2.93693-7.78846,12.94326C299.55769,278.03184,305.34834,244.31,322.92308,245.67374Z" transform="translate(-214.99999 -32.23836)"/><path class="cls-4" d="M332.21171,101.44577c4.72634.47678,6.39053,11.39007,6.39053,11.39007a5.70628,5.70628,0,0,0-5.59171-.00005c1.05689,9.95337,5.59171,14.49646,5.59171,14.49646a17.25119,17.25119,0,0,1-7.98816-2.07093s-.51124,4.47831,3.19526,12.42554c0,0-4.49981.17464-5.59171-2.07093,0,0-.94619,6.20588,2.39645,14.49646-7.18935-4.8055-6.39053-10.3546-6.39053-10.3546-1.57823-.30928-2.39645,4.14184-2.39645,4.14184a25.92574,25.92574,0,0,1,.79881-9.31915s-1.07666.39-1.91716,3.10638c0,0-.12591-12.30635,3.77689-18.00218,0,0-2.39075-1.54629-6.65263,7.64757C317.833,127.33225,321.39649,100.35477,332.21171,101.44577Z" transform="translate(-214.99999 -32.23836)"/><path class="cls-6" d="M338.2974,97.71461c3.61207,2.03355,1.81847,9.30444,1.81847,9.30444a6.28573,6.28573,0,0,0-4.43432-2.06182c-2.00136,6.4614.2988,10.90484.2988,10.90484a18.8825,18.8825,0,0,1-5.744-4.20871s-1.683,2.54333-1.01084,8.75793c0,0-3.61826-1.55266-3.84355-3.32509,0,0-2.52075,3.43679-2.2351,9.72668-4.33039-5.58231-2.11386-8.6728-2.11386-8.6728-1.16334-.77059-3.082,1.643-3.082,1.643a13.57785,13.57785,0,0,1,3.292-5.39028s-.96507-.15909-2.40653,1.188a25.48088,25.48088,0,0,1,7.42825-11.926s-2.51746.5744-6.75481,4.54922C319.51,108.204,330.032,93.06126,338.2974,97.71461Z" transform="translate(-214.99999 -32.23836)"/><path class="cls-8" d="M322.11106,138.71s.18333-3.02241.19126-5.50333a24.42921,24.42921,0,0,0-.38252-4.795,2.05109,2.05109,0,0,0-2.34081,1.62368s-.70782-1.11957-1.67569-.96982c-1.58474.2452-1.36615,2.452-1.36615,2.452s-1.25687-1.79812-2.623-.79008c-1.45987,1.07718.30055,2.87155.30055,2.87155a3.49227,3.49227,0,0,0-3.47,2.0324c-.7104,1.52567.40985,3.51449.40985,3.51449s-2.45908.27245-2.02191,2.125a1.719,1.719,0,0,0,2.21317,1.19874s-.9613,1.11153-.43717,2.0978c.66783,1.25667,2.65035.19071,2.65035.19071s-.97213,1.19987.03883,2.04444a19.49374,19.49374,0,0,0,4.11428-3.27042A62.12373,62.12373,0,0,0,322.11106,138.71Z" transform="translate(-214.99999 -32.23836)"/><path class="cls-8" d="M326.57693,370.96294s1.35682,2.70888,2.594,4.86137a24.49935,24.49935,0,0,0,2.73572,3.96186,2.04427,2.04427,0,0,0,1.213-2.57318s1.1744.61669,1.93751.00447c1.24947-1.00243-.04642-2.80458-.04642-2.80458s1.99014.9306,2.66779-.62349c.72413-1.66069-1.70023-2.337-1.70023-2.337a3.47915,3.47915,0,0,0,1.986-3.49011c-.14982-1.67545-2.11728-2.83931-2.11728-2.83931s1.993-1.46193.68542-2.84838a1.72088,1.72088,0,0,0-2.51777.06525s.27514-1.44188-.67334-2.0347c-1.20851-.75535-2.39089,1.15618-2.39089,1.15618s.24021-1.52377-1.05881-1.75117a19.41192,19.41192,0,0,0-1.92312,4.88347A61.90418,61.90418,0,0,0,326.57693,370.96294Z" transform="translate(-214.99999 -32.23836)"/><path class="cls-8" d="M314.90808,223.54624a4.40386,4.40386,0,0,0-2.23413-1.26236c-.22342-2.2648-2.37334-3.457-3.72356-3.78705a3.192,3.192,0,0,0-1.96312-2.47953,4.50991,4.50991,0,0,0-1.46256,1.95974c-1.11707-.5198-3.8725-.63118-4.24486,2.896a4.54928,4.54928,0,0,0-3.05332.44554s.37236,2.41332,1.78731,2.74747c-.85642,1.52225-2.23413,3.89844,1.0426,5.34643a3.59565,3.59565,0,0,0-.89366,3.0445,4.31166,4.31166,0,0,0,3.05332-.74256c.48407.9282,2.34585,2.599,4.84063.74256.78195,1.00245,2.75544,1.00245,2.75544,1.00245a12.6161,12.6161,0,0,0,.29788-3.00736,4.4443,4.4443,0,0,0,1.88526-5.099A5.52255,5.52255,0,0,0,314.90808,223.54624Z" transform="translate(-214.99999 -32.23836)"/><path class="cls-8" d="M292.02885,339.08222a3.701,3.701,0,0,0,1.87757,1.06089,3.97761,3.97761,0,0,0,3.12929,3.18265,2.68259,2.68259,0,0,0,1.64981,2.0838,3.79007,3.79007,0,0,0,1.22914-1.647c.93879.43683,3.25447.53044,3.5674-2.4338a3.82325,3.82325,0,0,0,2.566-.37443s-.31293-2.02816-1.50206-2.309c.71973-1.27931,1.87757-3.27627-.87621-4.49316a3.02179,3.02179,0,0,0,.751-2.55861,3.62352,3.62352,0,0,0-2.566.62405,2.60023,2.60023,0,0,0-4.06808-.62405,3.42156,3.42156,0,0,0-2.31567-.84247,10.60272,10.60272,0,0,0-.25035,2.52741,3.735,3.735,0,0,0-1.58438,4.28517A4.641,4.641,0,0,0,292.02885,339.08222Z" transform="translate(-214.99999 -32.23836)"/><path class="cls-9" d="M327.47885,489.96722c-1.92834-.4306-3.65515-2.45672-4.47461-5.21081-5.718-19.21832-11.34137-38.03748-16.90866-56.25043-6.58975,16.11936-13.18582,31.409-19.72394,45.65286-.92581,2.0188-2.66562,2.83844-4.51135,2.13334q-11.07348-4.213-21.88321-9.24592a8.96332,8.96332,0,0,1-4.19478-5.43551c-11.43051-36.52545-22.93518-68.9718-35.29649-95.3823a5.37747,5.37747,0,0,1,.18968-5.07614,4.78241,4.78241,0,0,1,4.26392-2.33212q14.22341.5484,28.48588,1.00717a5.05914,5.05914,0,0,1,4.413,3.746c5.4237,15.81684,10.76306,32.75177,16.08951,50.59433,6.80456-15.33474,13.68823-31.86538,20.57159-49.33889.92383-2.34259,2.67963-3.80432,4.55093-3.76484q9.58847.21155,19.187.38276c1.91337.03265,3.62131,1.71508,4.40094,4.35254,5.70878,19.31384,11.48453,39.26977,17.36689,59.63092,6.62008-19.12378,13.16366-38.84717,19.59707-58.93348.8786-2.7398,2.65009-4.47515,4.56632-4.46124q13.36808.10442,26.74167.1308c1.7539.00345,3.37726,1.49545,4.28351,3.93744a12.70463,12.70463,0,0,1,.14434,8.00891c-12.88113,39.77277-26.30423,79.26721-40.10116,116.51093-.93326,2.52191-2.73648,3.92761-4.67292,3.63641Q338.96227,492.52356,327.47885,489.96722Z" transform="translate(-214.99999 -32.23836)"/><path class="cls-10" d="M390.88519,370.32166c-12.92422,39.728-26.38675,79.046-40.19854,115.98132q-11.57685-1.63888-23.04212-4.05185c-7.15826-23.96488-14.16266-47.35623-21.087-69.77411-8.18909,20.34442-16.39783,39.43872-24.501,56.86676q-11.07834-3.9765-21.90768-8.72708c-11.46486-36.75452-22.96453-69.56159-35.2607-96.4642q14.15637,1.0112,28.38483,1.857c6.78157,19.44434,13.41462,40.67639,20.03886,63.28848,8.42972-18.61212,16.99387-39.10943,25.54147-61.00857q9.59157.39,19.20148.70572c7.08518,23.88058,14.26486,48.8071,21.61636,74.32382,8.26908-23.6,16.42405-48.1647,24.40171-73.23834q13.401.19234,26.81225.24109m.05023-16.3122q-13.336-.00412-26.67141-.02042c-3.82285-.00134-7.359,3.48682-9.1221,8.94648-4.87879,15.12948-9.81781,30.03219-14.80231,44.60583-4.42685-15.27957-8.79532-30.31387-13.1221-45.00058-1.56329-5.311-4.975-8.64014-8.79755-8.64368q-9.58713-.02668-19.17279-.05975c-3.74124-.00479-7.25278,2.96774-9.1,7.60382-5.21842,13.12412-10.431,25.68643-15.60282,37.57669-4.022-13.21963-8.05542-25.91287-12.13034-37.9899-1.53021-4.552-4.974-7.3779-8.83688-7.38372q-14.29623-.07169-28.58661-.15729a10.08122,10.08122,0,0,0-8.54773,4.8056,10.196,10.196,0,0,0-.33412,9.86615c12.42993,25.91052,23.94177,57.98865,35.3388,94.27735,1.54667,4.91455,4.75252,9.25476,8.35756,11.04016q10.78189,5.31555,21.85923,9.76507c3.68957,1.49457,7.18164-.13605,9.04007-4.2464,4.95809-10.93911,9.94345-22.45785,14.92868-34.463q6.30825,20.85054,12.7366,42.61063c1.63125,5.5014,5.07992,9.63073,8.943,10.54138q11.49339,2.69994,23.12863,4.53372c3.882.61838,7.49884-2.21524,9.36286-7.30435,13.77908-37.5448,27.16122-77.2085,39.99887-117.01859a25.42818,25.42818,0,0,0-.31235-16.01831c-1.81814-4.88351-5.05734-7.8663-8.55521-7.86688Z" transform="translate(-214.99999 -32.23836)"/><path class="cls-9" d="M453.35153,495.11951c-12.091,1.98306-22.96319.36032-32.16064-4.47773-9.52317-5.00207-16.99283-13.08172-22.173-23.52279-5.32281-10.72394-7.95715-23.3147-7.9151-37.29721.0419-13.88657,2.74466-26.28617,7.94983-36.93582a57.50339,57.50339,0,0,1,21.30368-24.136c8.77835-5.46347,19.10745-8.22488,30.76978-8.32669a69.139,69.139,0,0,1,21.484,3.25119,50.60018,50.60018,0,0,1,17.62933,9.24268,7.75863,7.75863,0,0,1,2.36679,4.49716,10.56127,10.56127,0,0,1-.485,5.63678q-4.019,10.4-8.06629,21.14755c-.89307,2.36871-2.50311,3.82666-4.19379,4.00571a3.46552,3.46552,0,0,1-2.26159-.56491c-8.16635-5.21268-16.63559-7.79868-25.20716-7.30741-7.4635.41928-13.09967,3.061-16.76281,8.01416-3.40055,4.59171-5.01938,11.38632-4.92624,20.75617.09436,9.49572,1.86242,16.22052,5.422,20.45157,3.81723,4.54162,9.61569,6.46081,17.18148,5.54895,8.69983-1.04191,17.158-5.51944,25.09119-12.86277a4.37573,4.37573,0,0,1,2.2374-1.16928c1.69989-.28259,3.37909.7088,4.38876,2.80335q4.57677,9.49639,9.15695,18.53564a9.54109,9.54109,0,0,1,.78153,5.4343,10.32836,10.32836,0,0,1-2.15033,5.21261,62.58884,62.58884,0,0,1-17.46241,14.18375A66.96439,66.96439,0,0,1,453.35153,495.11951Z" transform="translate(-214.99999 -32.23836)"/><path class="cls-10" d="M451.2565,368.34662a65.76187,65.76187,0,0,1,20.4418,2.86175,44.98167,44.98167,0,0,1,16.06848,8.1781q-4.02511,10.44476-8.08139,21.22251c-8.91253-5.75885-18.04113-8.64728-27.42523-8.19525-8.67959.40585-15.30679,3.60977-19.9064,9.80575q-6.89928,9.28446-6.773,27.12305c.0986,11.99094,2.53574,20.95212,7.34512,26.687,4.80329,5.73474,11.66779,8.13733,20.51313,6.9917,9.56326-1.23135,18.70742-6.20059,27.37854-14.35617q4.58143,9.59079,9.17056,18.7391a55.66593,55.66593,0,0,1-15.90564,12.57312,63.56089,63.56089,0,0,1-20.86225,7.219c-11.48846,1.78039-21.61132.26044-30.23617-4.26581-8.62845-4.52484-15.26285-11.601-19.87753-20.84686-4.619-9.253-6.88849-20.02494-6.87241-32.208q.02349-18.11293,6.807-31.94791a51.35435,51.35435,0,0,1,19.15121-21.59927c8.26431-5.16345,17.93472-7.7796,29.06418-7.98181M450.99469,352.5c-12.24146-.00906-23.13647,2.8707-32.46313,8.65494-9.92011,6.15216-17.81031,15.15686-23.45734,26.67819-5.92908,12.10257-9.02716,26.15311-9.10156,41.89053-.0745,15.82187,2.89712,30.13083,8.945,42.39423,5.76419,11.68756,14.00968,20.72613,24.47144,26.23767,9.81448,5.17847,21.34512,6.89026,34.093,4.68732a70.11827,70.11827,0,0,0,23.13674-8.56864A68.67915,68.67915,0,0,0,495.635,478.61456a20.92758,20.92758,0,0,0,4.2869-10.43676,18.66893,18.66893,0,0,0-1.56165-10.73447q-4.568-8.92026-9.14209-18.33087c-2.018-4.14313-5.36865-6.14862-8.7648-5.635a8.60107,8.60107,0,0,0-4.47083,2.26938c-7.34124,6.69076-14.81512,10.55221-22.80789,11.43917-6.24325.69632-11.04733-.75869-13.8609-4.0971-1.451-1.71537-3.38486-5.07907-3.49051-14.271-.10324-9.00021,1.7175-12.52371,3.09195-14.38861,2.70987-3.6792,7.41525-5.7738,13.60938-6.18033,7.90911-.5281,15.41644,1.69132,22.9833,6.47116a6.83708,6.83708,0,0,0,4.529,1.07828c3.38726-.40805,6.60595-3.38156,8.38867-8.10327q4.04035-10.70635,8.05136-21.06867a20.736,20.736,0,0,0,.96344-11.159,15.57264,15.57264,0,0,0-4.733-8.94687,55.47041,55.47041,0,0,0-19.188-10.35437A72.14237,72.14237,0,0,0,450.99469,352.5Z" transform="translate(-214.99999 -32.23836)"/><path class="cls-9" d="M505.27737,480.88226c-2.77447.9361-5.12121-1.624-5.229-5.66345q-1.42845-53.38549-2.85705-106.77118c-.10749-4.04037,2.04443-7.35458,4.807-7.40692q14.08187-.3138,28.13834-.71463c2.75854-.06595,5.07043,2.76926,5.16668,6.33594q.92185,34.04676,1.84363,68.0936,19.61911-6.34429,38.50214-14.57309c2.6004-1.11667,4.70355.24789,4.716,3.08627q.04165,8.07152.08325,16.1431a10.70868,10.70868,0,0,1-4.53729,8.09173A327.13678,327.13678,0,0,1,505.27737,480.88226Z" transform="translate(-214.99999 -32.23836)"/><path class="cls-10" d="M530.31995,366.92889q1.05249,37.992,2.105,75.98392a392.77644,392.77644,0,0,0,43.27533-17.39725q.07992,8.32778.15966,16.65552a340.13441,340.13441,0,0,1-70.78,31.50519q-1.44233-52.71492-2.88468-105.42978,14.08581-.5787,28.12467-1.3176m-.36585-13.20678q-14.07439.06261-28.15317.11157c-5.52194-.01733-9.82724,6.61121-9.61654,14.80371q1.40611,54.02349,2.81216,108.047c.2099,8.18948,4.92767,13.399,10.47775,11.40466a316.05661,316.05661,0,0,0,70.48792-35.25244c5.02679-3.42831,9.02533-10.81229,9.03778-16.26123V420.95923c.01068-5.45371-4.16925-8.12711-9.402-6.10922q-16.5802,6.63468-33.7326,11.93963-.79065-30.20283-1.58167-60.40576c-.17969-6.96448-4.80469-12.63434-10.32959-12.66177Z" transform="translate(-214.99999 -32.23836)"/><path class="cls-10" d="M251.36375,490.22675q2.54464.87479,5.097,1.71856-3.6561,8.54508-7.29657,17.0268-2.12723-.74332-4.2489-1.50827-2.12162-6.55975-4.2375-13.14121-2.15817,4.99269-4.31018,9.9628-2.10981-.8085-4.21356-1.63867-3.58612-11.16888-7.154-22.40061,2.68284,1.11123,5.3761,2.187,2.05889,6.97362,4.1237,13.92639,2.24849-5.27825,4.50377-10.581,1.81551.683,3.63532,1.35,2.17523,7.05771,4.35653,14.09268Q249.17665,495.73541,251.36375,490.22675Z" transform="translate(-214.99999 -32.23836)"/><path class="cls-10" d="M262.32,512.3736a13.35144,13.35144,0,0,1-4.827-10.36167,8.44869,8.44869,0,0,1,1.26276-4.8757,5.5463,5.5463,0,0,1,3.57825-2.31982,11.11332,11.11332,0,0,1,5.46008.46722,15.84047,15.84047,0,0,1,5.47565,2.83582,12.73046,12.73046,0,0,1,4.82354,10.11636,8.99985,8.99985,0,0,1-1.24679,4.96872,5.62758,5.62758,0,0,1-3.57675,2.47656,10.61236,10.61236,0,0,1-5.47565-.39746A15.273,15.273,0,0,1,262.32,512.3736Zm9.09887-1.49106q1.31475-1.17632,1.316-4.16416a8.50324,8.50324,0,0,0-1.316-4.89,6.524,6.524,0,0,0-3.62475-2.62677,3.60906,3.60906,0,0,0-3.6034.42947q-1.29555,1.131-1.29516,4.11588a8.80662,8.80662,0,0,0,1.29516,4.96683,6.422,6.422,0,0,0,3.6034,2.65283A3.58131,3.58131,0,0,0,271.41888,510.88254Z" transform="translate(-214.99999 -32.23836)"/><path class="cls-10" d="M306.31158,505.3577q2.61183.5467,5.22843,1.0625-3.74817,9.015-7.48663,17.96658-2.1846-.46875-4.36551-.95911-2.18092-6.28527-4.35816-12.592-2.22075,5.27275-4.43747,10.52292-2.17319-.53394-4.34247-1.08948-3.69771-10.70077-7.38317-21.46447,2.77121.75924,5.54949,1.48309,2.12394,6.70455,4.25174,13.38831,2.31716-5.57127,4.63877-11.167,1.86891.44711,3.7406.87824,2.23727,6.77581,4.47845,13.52881Q304.06673,511.14816,306.31158,505.3577Z" transform="translate(-214.99999 -32.23836)"/><path class="cls-10" d="M326.819,527.67175a11.26355,11.26355,0,0,1-3.749-4.14477,11.61179,11.61179,0,0,1-1.31259-5.48615,9.01654,9.01654,0,0,1,1.31259-4.99322,7.08333,7.08333,0,0,1,3.749-2.88312,11.918,11.918,0,0,1,5.719-.35693,15.80621,15.80621,0,0,1,4.01035,1.15515,10.50587,10.50587,0,0,1,3.1243,1.98828q-.8444,1.70974-1.68851,3.41632a11.07864,11.07864,0,0,0-5.32773-2.48773,4.46162,4.46162,0,0,0-3.90249.89575q-1.35933,1.278-1.35895,4.20807a7.361,7.361,0,0,0,1.35895,4.682,5.842,5.842,0,0,0,3.90249,2.10534,8.43746,8.43746,0,0,0,5.32773-.96466q.84407,1.93716,1.68851,3.8711a7.40117,7.40117,0,0,1-3.1243,1.135,13.21718,13.21718,0,0,1-4.01035-.00463A13.70657,13.70657,0,0,1,326.819,527.67175Z" transform="translate(-214.99999 -32.23836)"/><path class="cls-10" d="M342.57712,530.94495q0-9.75394,0-19.50769,2.787.35265,5.57712.671v15.34356q4.46694.50949,8.9411.93109V532.547Q349.82687,531.86218,342.57712,530.94495Z" transform="translate(-214.99999 -32.23836)"/><path class="cls-10" d="M376.08548,533.938q-.93878-2.06305-1.8772-4.12982-4.70709-.2657-9.40954-.62873-.93723,1.94146-1.87433,3.87909-2.79685-.2275-5.59152-.48926,4.94979-9.29013,9.90655-18.688,2.20308.1581,4.40747.2951,4.97375,10.06266,9.95209,20.01691Q378.84175,534.08227,376.08548,533.938Zm-9.471-8.48468q2.88753.2114,5.7771.38605-1.4447-3.16974-2.889-6.34839Q368.05833,522.47669,366.61444,525.45331Z" transform="translate(-214.99999 -32.23836)"/><path class="cls-10" d="M385.47513,534.00372a12.05267,12.05267,0,0,1-3.78638-1.69757q.87945-1.78647,1.75891-3.57623a13.93226,13.93226,0,0,0,3.29462,1.49066,12.97318,12.97318,0,0,0,3.50436.568,6.45378,6.45378,0,0,0,2.74362-.40185,1.37584,1.37584,0,0,0,.95438-1.26087,1.42853,1.42853,0,0,0-.865-1.23144,13.09107,13.09107,0,0,0-3.25085-1.0061,18.60411,18.60411,0,0,1-4.68165-1.48371,5.64073,5.64073,0,0,1-2.34042-1.98614,5.13807,5.13807,0,0,1-.67056-2.68347,4.99011,4.99011,0,0,1,1.1029-3.17786,6.92186,6.92186,0,0,1,3.101-2.14343,12.237,12.237,0,0,1,4.56247-.69458,17.66452,17.66452,0,0,1,4.45925.65564,9.76215,9.76215,0,0,1,3.38526,1.57006q-.86508,1.81971-1.73026,3.63611a12.315,12.315,0,0,0-2.95263-1.413,10.78376,10.78376,0,0,0-3.10193-.52966,4.84171,4.84171,0,0,0-2.44541.47937,1.56319,1.56319,0,0,0-.92459,1.41436,1.14255,1.14255,0,0,0,.32807.8302,3.46221,3.46221,0,0,0,1.22268.67463,20.44164,20.44164,0,0,0,2.68427.72741,20.14508,20.14508,0,0,1,4.54825,1.4419,5.64,5.64,0,0,1,2.34195,1.90332,4.748,4.748,0,0,1,.686,2.59051,5.099,5.099,0,0,1-2.41623,4.47028,11.71128,11.71128,0,0,1-6.80017,1.53406A18.95383,18.95383,0,0,1,385.47513,534.00372Z" transform="translate(-214.99999 -32.23836)"/><path class="cls-10" d="M405.51794,534.20111a11.50818,11.50818,0,0,1-3.78814-1.53168q.87992-1.825,1.75985-3.65326a13.29551,13.29551,0,0,0,3.29581,1.34626,12.74291,12.74291,0,0,0,3.50473.41443,6.601,6.601,0,0,0,2.74332-.5221,1.45407,1.45407,0,0,0,.9541-1.30273,1.35094,1.35094,0,0,0-.86484-1.19349,12.63394,12.63394,0,0,0-3.25049-.86376,17.956,17.956,0,0,1-4.68252-1.27851,5.3,5.3,0,0,1-2.34143-1.88348,4.97877,4.97877,0,0,1-.67093-2.654,5.18652,5.18652,0,0,1,1.10351-3.22626,7.3608,7.3608,0,0,1,3.10212-2.27936,12.5241,12.5241,0,0,1,4.56292-.89447,17.368,17.368,0,0,1,4.45829.4602,9.2865,9.2865,0,0,1,3.38342,1.4217q-.86463,1.8576-1.72925,3.71191A11.71152,11.71152,0,0,0,414.107,518.989a10.58086,10.58086,0,0,0-3.10131-.3938,4.98235,4.98235,0,0,0-2.44544.58661,1.64858,1.64858,0,0,0-.92477,1.4549,1.09456,1.09456,0,0,0,.32815.81579,3.28109,3.28109,0,0,0,1.22278.621,19.75844,19.75844,0,0,0,2.68414.60974,19.41979,19.41979,0,0,1,4.54688,1.24267,5.296,5.296,0,0,1,2.3407,1.80066,4.599,4.599,0,0,1,.68548,2.56043,5.36,5.36,0,0,1-2.41479,4.57617,12.07037,12.07037,0,0,1-6.79831,1.832A18.67582,18.67582,0,0,1,405.51794,534.20111Z" transform="translate(-214.99999 -32.23836)"/><path class="cls-10" d="M422.57251,534.00623V514.49854q2.80137-.13835,5.60123-.31116v19.50769Q425.37392,533.86792,422.57251,534.00623Z" transform="translate(-214.99999 -32.23836)"/><path class="cls-10" d="M436.52451,532.10327a7.96819,7.96819,0,0,1-3.78-3.234,9.7598,9.7598,0,0,1-1.3248-5.16711,10.63753,10.63753,0,0,1,1.3248-5.31226,10.1043,10.1043,0,0,1,3.78-3.79388,13.70573,13.70573,0,0,1,5.755-1.74439,14.18538,14.18538,0,0,1,4.02765.18341,7.871,7.871,0,0,1,3.13321,1.23188q-.84631,1.91409-1.69281,3.825a8.994,8.994,0,0,0-5.349-1.197,5.58767,5.58767,0,0,0-3.92554,1.84228,6.79818,6.79818,0,0,0-1.36838,4.53791,6.00656,6.00656,0,0,0,1.36838,4.35217,4.61739,4.61739,0,0,0,3.92554,1.15881,10.25821,10.25821,0,0,0,5.349-2.25537q.84659,1.73273,1.69281,3.4624a9.822,9.822,0,0,1-3.13321,1.89136,14.48235,14.48235,0,0,1-4.02765.9671A11.72416,11.72416,0,0,1,436.52451,532.10327Z" transform="translate(-214.99999 -32.23836)"/><path class="cls-10" d="M460.94849,530.48492V510.97717q2.7848-.3744,5.566-.78317v15.3436q4.45239-.65433,8.89437-1.397v4.16413Q468.19246,529.51114,460.94849,530.48492Z" transform="translate(-214.99999 -32.23836)"/><path class="cls-10" d="M478.06451,527.85272V508.34506q7.49149-1.29767,14.948-2.84643v3.94558q-4.76963.9907-9.55481,1.87885,0,1.83591,0,3.67181,4.47584-.83083,8.93848-1.75128v3.9447q-4.46256.92047-8.93848,1.75129,0,1.99987,0,4,4.78491-.888,9.55481-1.87885v3.94562Q485.55711,526.55514,478.06451,527.85272Z" transform="translate(-214.99999 -32.23836)"/><path class="cls-10" d="M511.44006,520.77905q-.91763-1.78326-1.83624-3.57025-4.60807,1.13763-9.23355,2.17816-.92189,2.22117-1.84451,4.43854-2.75382.60763-5.51325,1.18085,4.88727-10.76907,9.7569-21.646,2.16431-.49919,4.325-1.01962,4.87527,8.5794,9.73022,17.05041Q514.13559,520.10181,511.44006,520.77905ZM502.1553,515.119q2.83759-.65021,5.66886-1.33722-1.41555-2.73885-2.83283-5.48682Q503.574,511.71149,502.1553,515.119Z" transform="translate(-214.99999 -32.23836)"/><path class="cls-10" d="M535.75116,502.93741v9.781a23.286,23.286,0,0,1-3.6759,2.22114,25.96442,25.96442,0,0,1-4.17414,1.62121,12.12583,12.12583,0,0,1-5.83539.45325,5.961,5.961,0,0,1-3.8164-2.42639,8.521,8.521,0,0,1-1.33765-5.00055,12.19434,12.19434,0,0,1,1.33765-5.6304,13.35094,13.35094,0,0,1,3.773-4.5065,16.776,16.776,0,0,1,5.67645-2.83048,16.53157,16.53157,0,0,1,4.20374-.69693,7.24908,7.24908,0,0,1,3.21472.52576q-.84962,2.08488-1.70007,4.16641a9.17629,9.17629,0,0,0-2.72693-.45184,9.99355,9.99355,0,0,0-2.81733.43356,7.432,7.432,0,0,0-4.09631,2.63779,8.03628,8.03628,0,0,0-1.34839,4.85672q0,3.12327,1.40595,4.23748c.9367.7406,2.38019.83423,4.3277.26581a16.22631,16.22631,0,0,0,2.71545-1.07589v-3.61652q-1.79.53481-3.5835,1.05463v-3.47919Q531.53171,504.24919,535.75116,502.93741Z" transform="translate(-214.99999 -32.23836)"/><path class="cls-10" d="M541.38721,510.25458q-2.29852-1.40479-2.29877-5.57462v-11.2883q2.63067-.8399,5.25336-1.71252v11.48a3.55388,3.55388,0,0,0,.98871,2.90283,2.85862,2.85862,0,0,0,2.81842.16873,5.23188,5.23188,0,0,0,2.77191-2.09637,6.34341,6.34341,0,0,0,.97094-3.56036V489.094q2.63929-.92949,5.2699-1.89233v11.2883a11.35549,11.35549,0,0,1-2.31982,7.12964,13.84,13.84,0,0,1-6.69293,4.52823C545.17517,511.16556,542.91858,511.19028,541.38721,510.25458Z" transform="translate(-214.99999 -32.23836)"/><path class="cls-10" d="M560.65607,505.41418V485.90649q7.2074-2.70479,14.34393-5.66034v3.94559q-4.56482,1.89084-9.16016,3.67905v3.67181q4.298-1.67257,8.57019-3.43515v3.9447q-4.272,1.76253-8.57019,3.43515v4q4.59486-1.7881,9.16016-3.679v3.94559Q567.86447,502.70953,560.65607,505.41418Z" transform="translate(-214.99999 -32.23836)"/></svg>